<svg width="303" height="117" viewBox="0 0 303 117" fill="none" xmlns="http://www.w3.org/2000/svg">
<path d="M147.391 43.701V83.0057C147.391 94.3495 151.868 100.021 160.821 100.021C169.774 100.021 174.25 94.3495 174.25 83.0057V43.701H190.071V83.3573C190.071 88.8417 189.391 93.576 188.032 97.5604C186.719 101.123 184.446 104.334 181.211 107.193C175.868 111.834 169.071 114.154 160.821 114.154C152.618 114.154 145.844 111.834 140.5 107.193C137.219 104.334 134.899 101.123 133.539 97.5604C132.227 94.3729 131.571 89.6385 131.571 83.3573V43.701H147.391Z" fill="black"/>
<path d="M225.86 43.701V112.185H210.039V43.701H225.86ZM207.649 15.2245C207.649 12.4589 208.657 10.0682 210.672 8.05261C212.688 6.03699 215.102 5.02917 217.914 5.02917C220.774 5.02917 223.211 6.03699 225.227 8.05261C227.243 10.0214 228.25 12.4354 228.25 15.2948C228.25 18.1542 227.243 20.5917 225.227 22.6073C223.258 24.6229 220.844 25.6307 217.985 25.6307C215.125 25.6307 212.688 24.6229 210.672 22.6073C208.657 20.5917 207.649 18.1307 207.649 15.2245Z" fill="black"/>
<path d="M262.211 43.1854V32.9432C262.211 29.3807 263.359 26.3104 265.656 23.7323C268 21.1073 270.883 19.7948 274.304 19.7948C277.773 19.7948 280.703 21.1307 283.093 23.8026C285.333 26.4159 286.458 29.4474 286.468 32.8969H302.289C302.278 25.2294 299.536 18.6823 294.062 13.2557C288.625 7.77136 282.062 5.02917 274.375 5.02917C266.64 5.02917 260.031 7.77136 254.547 13.2557C249.109 18.6932 246.39 25.2557 246.39 32.9432V43.701H240.766V58.4667H246.391V112.185H262.211V58.4667H280.352V43.701H262.211L262.211 43.1854Z" fill="black"/>
<path d="M302.289 112.185H286.469V43.701H302.289V112.185Z" fill="black"/>
<path d="M116.383 58.6073C116.383 90.6053 90.4436 116.545 58.4456 116.545C26.4477 116.545 0.508148 90.6053 0.508148 58.6073C0.508148 26.6093 26.4477 0.6698 58.4456 0.6698C90.4436 0.6698 116.383 26.6093 116.383 58.6073Z" fill="#A2CB93"/>
<path fill-rule="evenodd" clip-rule="evenodd" d="M27.5469 89.5061C10.4643 72.4235 10.4643 44.7912 27.5469 27.7086C44.6295 10.626 72.2618 10.626 89.3444 27.7086C107.751 46.1154 113.622 91.0069 115.299 108.663C115.653 112.548 112.43 115.77 108.546 115.417C90.8452 113.784 45.9537 107.913 27.5469 89.5061ZM47.4104 69.6426C53.5018 75.7341 63.3895 75.7341 69.4809 69.6426C75.5724 63.5511 75.5724 53.6635 69.4809 47.5721C63.3895 41.4806 53.5018 41.4806 47.4104 47.5721C41.3189 53.6635 41.3189 63.5511 47.4104 69.6426Z" fill="black"/>
</svg>
